<svg width="137" height="31" viewBox="0 0 137 31" fill="none" xmlns="http://www.w3.org/2000/svg">
<path d="M48.0962 6.14246H0V29.8694H48.0962V6.14246Z" fill="white"/>
<path d="M18.9895 13.6498C18.9895 13.6498 18.588 13.8104 18.0259 14.533L14.9145 18.4474V20.7759C14.9145 21.3781 15.1554 21.6792 15.1554 21.6792H11.3013C11.3013 21.6792 11.5422 21.3982 11.5422 20.796V18.4474L8.47094 14.5732C7.90888 13.8706 7.48733 13.6699 7.48733 13.6699H11.4017C11.4017 13.6699 11.5221 14.0713 11.9236 14.6936L13.2284 16.701H13.2685L14.5733 14.6936C14.9748 14.0713 15.0952 13.6699 15.0952 13.6699H18.9895V13.6498Z" fill="#252525"/>
<path d="M26.7181 13.6497H20.3146C20.3146 13.6497 20.5555 13.9308 20.5555 14.533V20.7758C20.5555 21.378 20.3146 21.6591 20.3146 21.6591H24.1687C24.1687 21.6591 23.9279 21.378 23.9279 20.7558V18.8086H26.7181C28.4845 18.8086 29.8295 17.8852 29.8295 16.2191C29.8295 14.5731 28.5448 13.6497 26.7181 13.6497ZM25.0118 17.3834H23.9479V15.1552H25.0319C25.8148 15.1552 26.437 15.4563 26.437 16.2593C26.437 17.0622 25.7947 17.3834 25.0118 17.3834Z" fill="#252525"/>
<path d="M39.7657 15.5168C39.7657 15.5168 39.4044 15.296 38.8022 15.296H34.9682V17.223H38.0394C38.6416 17.223 39.0631 17.0825 39.0631 17.0825V18.9895C39.0631 18.9895 38.6215 18.8089 38.0193 18.8089H34.9481V20.756C34.9481 21.3582 35.1689 21.6392 35.1689 21.6392H31.3348C31.3348 21.6392 31.5757 21.3582 31.5757 20.756V14.5131C31.5757 13.9109 31.3348 13.6299 31.3348 13.6299H39.7457V15.5168H39.7657Z" fill="#252525"/>
<path d="M86.4968 10.4783V19.0497C86.4968 20.2541 86.1957 21.2177 85.5935 21.9002C84.9913 22.5827 84.1482 22.9239 83.0843 22.9239C82.0004 22.9239 81.1573 22.5827 80.5551 21.9002C79.9328 21.2177 79.6317 20.2742 79.6317 19.0497V6.18259H71.6625V19.391C71.6625 22.6228 72.7063 25.2123 74.794 27.1594C76.8816 29.1066 79.6518 30.0902 83.0843 30.0902C86.5169 30.0902 89.267 29.1066 91.3546 27.1594C93.4423 25.2123 94.466 22.6228 94.466 19.391V6.18259H90.7926C88.4239 6.16252 86.4968 8.08957 86.4968 10.4783Z" fill="white"/>
<path d="M110.043 25.1923C109.642 24.4696 109.321 23.7269 109.039 22.944H107.434C106.591 22.944 105.948 22.7032 105.466 22.2415C104.985 21.7597 104.764 21.1174 104.764 20.2943V12.2248H109.14H109.943V10.4382V6.08228H104.563V0.0200748H103.861V0H96.7545V8.41081V12.9073L96.7746 12.9274V21.6593C96.7746 24.2287 97.4972 26.2562 98.9626 27.7215C100.428 29.1869 102.435 29.9296 105.005 29.9296H109.12C110.625 29.9296 112.753 29.9296 114.339 29.9296C112.572 28.7252 111.107 27.1394 110.043 25.1923Z" fill="white"/>
<path d="M60.7426 6.18274H52.3518V14.6136C53.9176 11.0004 57.2899 8.0295 60.7426 6.18274Z" fill="white"/>
<path d="M60.3811 8.6919C55.8646 11.5423 52.7933 16.4604 52.4922 22.1211H52.4721V29.8293H60.4012V22.9642C60.4413 18.0261 64.456 14.0315 69.4142 14.0315V6.10242C68.9324 6.10242 68.4707 6.12249 68.009 6.16264C65.1987 6.38344 62.6093 7.28675 60.3811 8.6919Z" fill="white"/>
<path d="M111.167 22.1011C110.987 21.5791 110.846 21.0372 110.746 20.4952C110.846 21.0372 110.987 21.5791 111.167 22.1011Z" fill="white"/>
<path d="M130.518 6.14234L129.695 7.92889C127.708 6.28286 125.339 5.45984 122.629 5.45984C119.076 5.45984 116.165 6.60403 113.897 8.91249C111.629 11.2009 110.485 14.1517 110.485 17.7448C110.485 18.5076 110.545 19.2303 110.645 19.9329C110.665 20.1135 110.705 20.3143 110.746 20.4949C110.846 21.057 110.986 21.5789 111.167 22.1008C111.408 22.8034 111.689 23.4658 112.05 24.1082C112.271 24.5096 112.512 24.9111 112.793 25.2724C113.315 26.0151 113.937 26.6776 114.62 27.2597C114.961 27.5608 115.322 27.8218 115.704 28.0827C115.925 28.2232 116.145 28.3637 116.386 28.5042C116.527 28.5845 116.667 28.6648 116.808 28.7251C117.149 28.9057 117.49 29.0462 117.852 29.1868C118.032 29.267 118.233 29.3273 118.414 29.3875C118.655 29.4678 118.895 29.5481 119.136 29.6083C119.417 29.6886 119.698 29.7488 119.979 29.809C120.843 29.9696 121.726 30.07 122.669 30.07C125.339 30.07 127.668 29.2671 129.655 27.6612L130.578 29.9094H136.5V6.14234H130.518ZM127.025 21.5187C126.042 22.5223 124.797 23.0242 123.312 23.0242C121.826 23.0242 120.582 22.5223 119.598 21.5187C118.614 20.515 118.133 19.2504 118.133 17.7448C118.133 16.2193 118.614 14.9546 119.598 13.9509C120.582 12.9473 121.806 12.4454 123.312 12.4454C124.817 12.4454 126.042 12.9473 127.025 13.9509C128.009 14.9546 128.511 16.2193 128.511 17.7248C128.511 19.2303 128.009 20.515 127.025 21.5187Z" fill="white"/>
</svg>
