<svg width="137" height="32" viewBox="0 0 137 32" fill="none" xmlns="http://www.w3.org/2000/svg">
<path d="M48.0962 7.09766H0V30.8246H48.0962V7.09766Z" fill="#0451DD"/>
<path d="M18.9894 14.605C18.9894 14.605 18.588 14.7656 18.0259 15.4882L14.9145 19.4026V21.7311C14.9145 22.3333 15.1554 22.6344 15.1554 22.6344H11.3013C11.3013 22.6344 11.5422 22.3534 11.5422 21.7512V19.4026L8.47093 15.5284C7.90887 14.8258 7.48732 14.6251 7.48732 14.6251H11.4017C11.4017 14.6251 11.5221 15.0265 11.9236 15.6488L13.2284 17.6562H13.2685L14.5733 15.6488C14.9747 15.0265 15.0952 14.6251 15.0952 14.6251H18.9894V14.605Z" fill="white"/>
<path d="M26.7181 14.605H20.3146C20.3146 14.605 20.5555 14.886 20.5555 15.4882V21.7311C20.5555 22.3333 20.3146 22.6143 20.3146 22.6143H24.1687C24.1687 22.6143 23.9279 22.3333 23.9279 21.711V19.7639H26.7181C28.4845 19.7639 29.8295 18.8405 29.8295 17.1744C29.8295 15.5284 28.5448 14.605 26.7181 14.605ZM25.0118 18.3387H23.9479V16.1105H25.0319C25.8148 16.1105 26.437 16.4116 26.437 17.2145C26.437 18.0175 25.7947 18.3387 25.0118 18.3387Z" fill="white"/>
<path d="M39.7657 16.4721C39.7657 16.4721 39.4044 16.2513 38.8022 16.2513H34.9682V18.1784H38.0394C38.6416 18.1784 39.0631 18.0379 39.0631 18.0379V19.9448C39.0631 19.9448 38.6215 19.7642 38.0193 19.7642H34.9481V21.7113C34.9481 22.3135 35.1689 22.5945 35.1689 22.5945H31.3348C31.3348 22.5945 31.5757 22.3135 31.5757 21.7113V15.4684C31.5757 14.8662 31.3348 14.5852 31.3348 14.5852H39.7457V16.4721H39.7657Z" fill="white"/>
<path d="M86.4968 11.4336V20.005C86.4968 21.2094 86.1957 22.1729 85.5935 22.8554C84.9913 23.5379 84.1482 23.8792 83.0843 23.8792C82.0004 23.8792 81.1573 23.5379 80.5551 22.8554C79.9328 22.1729 79.6317 21.2295 79.6317 20.005V7.13785H71.6625V20.3462C71.6625 23.5781 72.7063 26.1676 74.794 28.1147C76.8816 30.0618 79.6518 31.0454 83.0843 31.0454C86.5169 31.0454 89.267 30.0618 91.3546 28.1147C93.4423 26.1676 94.466 23.5781 94.466 20.3462V7.13785H90.7926C88.4239 7.11778 86.4968 9.04483 86.4968 11.4336Z" fill="white"/>
<path d="M110.043 26.1474C109.642 25.4247 109.321 24.682 109.039 23.8991H107.434C106.591 23.8991 105.948 23.6582 105.466 23.1966C104.985 22.7148 104.764 22.0724 104.764 21.2494V13.1799H109.14H109.943V11.3933V7.03735H104.563V0.975153H103.861V0.955078H96.7545V9.36589V13.8624L96.7746 13.8824V22.6144C96.7746 25.1838 97.4972 27.2113 98.9626 28.6766C100.428 30.142 102.435 30.8847 105.005 30.8847H109.12C110.625 30.8847 112.753 30.8847 114.339 30.8847C112.572 29.6803 111.107 28.0945 110.043 26.1474Z" fill="white"/>
<path d="M60.7426 7.1377H52.3518V15.5686C53.9176 11.9553 57.2899 8.98446 60.7426 7.1377Z" fill="white"/>
<path d="M60.3811 9.6471C55.8646 12.4975 52.7933 17.4156 52.4922 23.0763H52.4721V30.7845H60.4012V23.9194C60.4413 18.9813 64.456 14.9867 69.4142 14.9867V7.05762C68.9324 7.05762 68.4707 7.07769 68.009 7.11784C65.1988 7.33864 62.6093 8.24195 60.3811 9.6471Z" fill="white"/>
<path d="M111.167 23.0561C110.987 22.5342 110.846 21.9922 110.746 21.4502C110.846 21.9922 110.987 22.5342 111.167 23.0561Z" fill="white"/>
<path d="M130.518 7.09754L129.695 8.88409C127.708 7.23806 125.339 6.41504 122.629 6.41504C119.076 6.41504 116.165 7.55923 113.897 9.86769C111.629 12.1561 110.485 15.1069 110.485 18.7C110.485 19.4628 110.545 20.1855 110.645 20.8881C110.665 21.0687 110.705 21.2695 110.746 21.4501C110.846 22.0122 110.986 22.5341 111.167 23.056C111.408 23.7586 111.689 24.421 112.05 25.0634C112.271 25.4648 112.512 25.8663 112.793 26.2276C113.315 26.9703 113.937 27.6328 114.62 28.2149C114.961 28.516 115.322 28.777 115.704 29.0379C115.925 29.1784 116.145 29.3189 116.386 29.4594C116.527 29.5397 116.667 29.62 116.808 29.6803C117.149 29.8609 117.49 30.0014 117.852 30.142C118.032 30.2222 118.233 30.2825 118.414 30.3427C118.655 30.423 118.895 30.5033 119.136 30.5635C119.417 30.6438 119.698 30.704 119.979 30.7642C120.843 30.9248 121.726 31.0252 122.669 31.0252C125.339 31.0252 127.668 30.2223 129.655 28.6164L130.578 30.8646H136.5V7.09754H130.518ZM127.025 22.4739C126.042 23.4775 124.797 23.9794 123.312 23.9794C121.826 23.9794 120.582 23.4775 119.598 22.4739C118.614 21.4702 118.133 20.2056 118.133 18.7C118.133 17.1745 118.614 15.9098 119.598 14.9061C120.582 13.9025 121.806 13.4006 123.312 13.4006C124.817 13.4006 126.042 13.9025 127.025 14.9061C128.009 15.9098 128.511 17.1745 128.511 18.68C128.511 20.1855 128.009 21.4702 127.025 22.4739Z" fill="white"/>
</svg>
