<svg width="18" height="14" viewBox="0 0 18 14" fill="none" xmlns="http://www.w3.org/2000/svg">
<path fill-rule="evenodd" clip-rule="evenodd" d="M15.389 1.0923C16.1324 1.29873 16.7178 1.90706 16.9164 2.67926C17.2775 4.0793 17.2775 6.99995 17.2775 6.99995C17.2775 6.99995 17.2775 9.92075 16.9164 11.3206C16.7178 12.0928 16.1324 12.7013 15.389 12.9076C14.0416 13.2828 8.63869 13.2828 8.63869 13.2828C8.63869 13.2828 3.23592 13.2828 1.88853 12.9076C1.14515 12.7013 0.559776 12.0928 0.361095 11.3206C0 9.92075 0 6.99995 0 6.99995C0 6.99995 0 4.0793 0.361095 2.67926C0.559776 1.90706 1.14515 1.29873 1.88853 1.0923C3.23592 0.717285 8.63869 0.717285 8.63869 0.717285C8.63869 0.717285 14.0416 0.717285 15.389 1.0923ZM6.9111 4.30725V9.69256L11.3997 7.00005L6.9111 4.30725Z" fill="#FAFAFA"/>
</svg>
