<svg width="90" height="90" viewBox="0 0 90 90" fill="none" xmlns="http://www.w3.org/2000/svg">
<path d="M51.1262 7.55542C40.6284 7.55542 32.1113 15.6618 32.1113 25.646C32.1113 37.1341 44.7879 55.3396 49.4426 61.6277C49.6358 61.8931 49.889 62.1091 50.1816 62.258C50.4742 62.4069 50.7979 62.4846 51.1262 62.4846C51.4545 62.4846 51.7782 62.4069 52.0708 62.258C52.3634 62.1091 52.6166 61.8931 52.8098 61.6277C57.4645 55.3422 70.1411 37.1434 70.1411 25.646C70.1411 15.6618 61.624 7.55542 51.1262 7.55542Z" fill="#CDDCF8" fill-opacity="0.4"/>
<path d="M45.1259 10.5557C34.6281 10.5557 26.111 18.6621 26.111 28.6462C26.111 40.1344 38.7876 58.3398 43.4423 64.6279C43.6355 64.8933 43.8887 65.1093 44.1813 65.2583C44.4739 65.4072 44.7976 65.4848 45.1259 65.4848C45.4542 65.4848 45.7779 65.4072 46.0705 65.2583C46.3631 65.1093 46.6163 64.8933 46.8095 64.6279C51.4642 58.3424 64.1408 40.1436 64.1408 28.6462C64.1408 18.6621 55.6237 10.5557 45.1259 10.5557Z" stroke="#0451DD" stroke-width="2" stroke-linecap="round" stroke-linejoin="round"/>
<path d="M44.6715 35.9097C48.1721 35.9097 51.0098 33.072 51.0098 29.5714C51.0098 26.0709 48.1721 23.2332 44.6715 23.2332C41.171 23.2332 38.3332 26.0709 38.3332 29.5714C38.3332 33.072 41.171 35.9097 44.6715 35.9097Z" stroke="#0451DD" stroke-width="2" stroke-linecap="round" stroke-linejoin="round"/>
<path d="M59.4443 45H65.8173C66.6602 45 67.4127 45.5285 67.6987 46.3215L78.4783 76.2103C78.9484 77.5139 77.9826 78.8889 76.5969 78.8889H13.9147C12.5413 78.8889 11.5766 77.5364 12.0236 76.2378L22.3133 46.349C22.5911 45.5418 23.3507 45 24.2043 45H31.111" stroke="#0451DD" stroke-width="2" stroke-linecap="round"/>
<path d="M17.7777 60.5554H40" stroke="#0451DD" stroke-width="2" stroke-linecap="round"/>
<path d="M50.5555 60.5554L72.7777 60.5554" stroke="#0451DD" stroke-width="2" stroke-linecap="round"/>
<path d="M60.5555 60.5554V78.3332" stroke="#0451DD" stroke-width="2"/>
</svg>
