<svg width="17" height="18" viewBox="0 0 17 18" fill="none" xmlns="http://www.w3.org/2000/svg">
<path fill-rule="evenodd" clip-rule="evenodd" d="M5.88512 6.15461H9.28654V7.69329H9.33403C9.80742 6.80803 10.9644 5.87476 12.6896 5.87476C16.281 5.87476 16.944 8.20695 16.944 11.2381V17.4145H13.4V11.9387C13.4 10.633 13.3756 8.95344 11.557 8.95344C9.71195 8.95344 9.42851 10.3758 9.42851 11.8442V17.4145H5.88512V6.15461Z" fill="#FAFAFA"/>
<path fill-rule="evenodd" clip-rule="evenodd" d="M2.03923 0.585693C3.09982 0.585693 3.9619 1.49337 3.9619 2.61059C3.9619 3.72895 3.09982 4.63663 2.03923 4.63663C0.97585 4.63663 0.115326 3.72895 0.115326 2.61059C0.115326 1.49337 0.97585 0.585693 2.03923 0.585693Z" fill="#FAFAFA"/>
<path fill-rule="evenodd" clip-rule="evenodd" d="M0.378067 17.4143H3.69575V6.1731H0.378067V17.4143Z" fill="#FAFAFA"/>
</svg>
