<svg width="90" height="90" viewBox="0 0 90 90" fill="none" xmlns="http://www.w3.org/2000/svg">
<g clip-path="url(#clip0)">
<rect x="22.5" y="8.4375" width="39.375" height="61.875" rx="1" fill="#CDDCF8" fill-opacity="0.4"/>
<rect x="14.0625" y="14.0625" width="39.375" height="61.875" stroke="#0451DD" stroke-width="2" stroke-linejoin="round"/>
<rect x="22.5" y="22.5" width="22.5" height="11.25" fill="white" stroke="#0451DD" stroke-width="2" stroke-linejoin="round"/>
<path d="M65.3517 30.1899C64.9388 29.8231 64.3067 29.8604 63.9399 30.2733C63.5731 30.6862 63.6104 31.3183 64.0233 31.6851L65.3517 30.1899ZM75.6017 40.6341L76.2659 39.8865L75.6017 40.6341ZM53.4375 61.4036H63.6875V59.4036H53.4375V61.4036ZM63.6875 61.4036V74.9375H65.6875V61.4036H63.6875ZM65.6875 76.9375H74.9375V74.9375H65.6875V76.9375ZM76.9375 74.9375V41.3816H74.9375V74.9375H76.9375ZM76.2659 39.8865L65.3517 30.1899L64.0233 31.6851L74.9375 41.3816L76.2659 39.8865ZM76.9375 41.3816C76.9375 40.8102 76.6931 40.266 76.2659 39.8865L74.9375 41.3816H76.9375ZM74.9375 76.9375C76.0421 76.9375 76.9375 76.0421 76.9375 74.9375H74.9375V76.9375ZM63.6875 74.9375C63.6875 76.0421 64.5829 76.9375 65.6875 76.9375V74.9375H63.6875ZM63.6875 61.4036H65.6875C65.6875 60.299 64.7921 59.4036 63.6875 59.4036V61.4036Z" fill="#0451DD"/>
<circle cx="70.3125" cy="45" r="5.625" fill="white" stroke="#0451DD" stroke-width="2"/>
</g>
<defs>
<clipPath id="clip0">
<rect width="90" height="90" fill="white"/>
</clipPath>
</defs>
</svg>
