<svg width="18" height="14" viewBox="0 0 18 14" fill="none" xmlns="http://www.w3.org/2000/svg">
<path fill-rule="evenodd" clip-rule="evenodd" d="M6.12581 13.4386C12.2809 13.4386 15.6475 8.48401 15.6475 4.18742C15.6475 4.0467 15.6475 3.90661 15.6377 3.76715C16.2926 3.30688 16.858 2.73698 17.3073 2.08414C16.6965 2.34708 16.0486 2.51952 15.3852 2.5957C16.0838 2.18935 16.6067 1.55025 16.8565 0.797315C16.1996 1.17604 15.4809 1.44295 14.7315 1.58652C13.6941 0.514845 12.0458 0.252548 10.7108 0.946713C9.37585 1.64088 8.68616 3.11887 9.02851 4.55192C6.33778 4.42086 3.83084 3.18606 2.13158 1.15484C1.24337 2.64048 1.69705 4.54105 3.16765 5.49517C2.63509 5.47983 2.11415 5.34025 1.64878 5.0882C1.64878 5.10151 1.64878 5.11546 1.64878 5.1294C1.64921 6.67713 2.77211 8.01019 4.33356 8.31666C3.84088 8.44721 3.32396 8.46629 2.82251 8.37245C3.26092 9.69694 4.51727 10.6043 5.949 10.6304C4.764 11.5353 3.30014 12.0265 1.79297 12.025C1.52671 12.0245 1.26071 12.0088 0.996338 11.9781C2.52672 12.9323 4.30741 13.4384 6.12581 13.4361" fill="#FAFAFA"/>
</svg>
